<svg xmlns="http://www.w3.org/2000/svg" xmlns:xlink="http://www.w3.org/1999/xlink" width="1920" zoomAndPan="magnify" viewBox="0 0 1440 809.999993" height="1080" preserveAspectRatio="xMidYMid meet" version="1.0"><defs><g/><clipPath id="decf73d25d"><path d="M 756 472.390625 L 785 472.390625 L 785 501.640625 L 756 501.640625 Z M 756 472.390625 " clip-rule="nonzero"/></clipPath><clipPath id="558509db00"><path d="M 308.253906 483 L 734 483 L 734 490 L 308.253906 490 Z M 308.253906 483 " clip-rule="nonzero"/></clipPath></defs><g fill="#000000" fill-opacity="1"><g transform="translate(780.940785, 463.422357)"><g><path d="M 11.421875 -146.421875 C 11.421875 -152.171875 11.289062 -156.863281 11.03125 -160.5 C 10.78125 -164.144531 10.234375 -167.234375 9.390625 -169.765625 C 8.546875 -172.304688 7.363281 -174.929688 5.84375 -177.640625 L 44.40625 -177.640625 C 62.84375 -177.640625 77.390625 -169.8125 88.046875 -154.15625 C 98.710938 -138.507812 104.046875 -116.476562 104.046875 -88.0625 C 104.046875 -59.632812 98.710938 -37.847656 88.046875 -22.703125 C 77.390625 -7.566406 62.84375 0 44.40625 0 L 5.84375 0 C 8.207031 -4.0625 9.726562 -8.457031 10.40625 -13.1875 C 11.082031 -17.925781 11.421875 -24.523438 11.421875 -32.984375 Z M 41.359375 -168.75 L 41.359375 -8.875 C 47.109375 -8.875 51.929688 -10.691406 55.828125 -14.328125 C 59.722656 -17.972656 62.894531 -22.753906 65.34375 -28.671875 C 67.800781 -34.597656 69.660156 -41.070312 70.921875 -48.09375 C 72.191406 -55.113281 73.035156 -62.085938 73.453125 -69.015625 C 73.878906 -75.953125 74.09375 -82.128906 74.09375 -87.546875 C 74.09375 -92.960938 73.878906 -99.222656 73.453125 -106.328125 C 73.035156 -113.429688 72.191406 -120.617188 70.921875 -127.890625 C 69.660156 -135.171875 67.800781 -141.894531 65.34375 -148.0625 C 62.894531 -154.238281 59.722656 -159.226562 55.828125 -163.03125 C 51.929688 -166.84375 47.109375 -168.75 41.359375 -168.75 Z M 41.359375 -168.75 "/></g></g></g><g fill="#000000" fill-opacity="1"><g transform="translate(894.123127, 463.422357)"><g><path d="M 11.171875 -146.671875 C 11.171875 -152.421875 11.039062 -157.070312 10.78125 -160.625 C 10.53125 -164.1875 10.023438 -167.234375 9.265625 -169.765625 C 8.503906 -172.304688 7.363281 -174.929688 5.84375 -177.640625 L 46.953125 -177.640625 C 45.421875 -174.929688 44.234375 -172.304688 43.390625 -169.765625 C 42.546875 -167.234375 41.953125 -164.1875 41.609375 -160.625 C 41.273438 -157.070312 41.109375 -152.421875 41.109375 -146.671875 L 41.109375 -65.984375 C 41.109375 -50.921875 41.488281 -39.203125 42.25 -30.828125 C 43.007812 -22.453125 44.53125 -16.613281 46.8125 -13.3125 C 49.101562 -10.019531 52.445312 -8.375 56.84375 -8.375 C 61.40625 -8.375 64.785156 -10.019531 66.984375 -13.3125 C 69.191406 -16.613281 70.675781 -22.453125 71.4375 -30.828125 C 72.195312 -39.203125 72.578125 -50.921875 72.578125 -65.984375 L 72.578125 -146.671875 C 72.578125 -152.421875 72.445312 -157.070312 72.1875 -160.625 C 71.9375 -164.1875 71.429688 -167.234375 70.671875 -169.765625 C 69.910156 -172.304688 68.6875 -174.929688 67 -177.640625 L 108.109375 -177.640625 C 105.910156 -173.578125 104.425781 -169.515625 103.65625 -165.453125 C 102.894531 -161.390625 102.515625 -155.128906 102.515625 -146.671875 L 102.515625 -47.96875 C 102.515625 -36.625 100.863281 -27.65625 97.5625 -21.0625 C 94.269531 -14.46875 90.128906 -9.519531 85.140625 -6.21875 C 80.148438 -2.914062 75.160156 -0.757812 70.171875 0.25 C 65.179688 1.269531 60.90625 1.78125 57.34375 1.78125 C 53.625 1.78125 49.140625 1.269531 43.890625 0.25 C 38.648438 -0.757812 33.535156 -2.914062 28.546875 -6.21875 C 23.554688 -9.519531 19.410156 -14.46875 16.109375 -21.0625 C 12.816406 -27.65625 11.171875 -36.625 11.171875 -47.96875 Z M 11.171875 -146.671875 "/></g></g></g><g fill="#000000" fill-opacity="1"><g transform="translate(1008.066788, 463.422357)"><g><path d="M 6.09375 -177.640625 L 47.203125 -177.640625 C 45.679688 -174.929688 44.492188 -172.304688 43.640625 -169.765625 C 42.796875 -167.234375 42.25 -164.1875 42 -160.625 C 41.75 -157.070312 41.625 -152.421875 41.625 -146.671875 L 41.625 -122.0625 C 44.320312 -125.269531 47.703125 -129.242188 51.765625 -133.984375 C 55.828125 -138.722656 59.890625 -143.628906 63.953125 -148.703125 C 68.015625 -153.773438 71.394531 -158.34375 74.09375 -162.40625 C 76.800781 -166.46875 78.15625 -169.515625 78.15625 -171.546875 C 78.15625 -173.910156 77.3125 -175.941406 75.625 -177.640625 L 106.578125 -177.640625 C 102.179688 -175.097656 97.488281 -171.753906 92.5 -167.609375 C 87.507812 -163.460938 83.578125 -159.191406 80.703125 -154.796875 C 87.972656 -124.515625 93.425781 -98.753906 97.0625 -77.515625 C 100.695312 -56.285156 103.867188 -39.328125 106.578125 -26.640625 C 109.285156 -13.953125 112.585938 -5.070312 116.484375 0 L 73.078125 0 C 74.097656 -1.863281 74.648438 -4.992188 74.734375 -9.390625 C 74.816406 -13.785156 74.351562 -18.609375 73.34375 -23.859375 C 72.664062 -27.742188 71.734375 -33.578125 70.546875 -41.359375 C 69.359375 -49.140625 68.003906 -57.9375 66.484375 -67.75 C 64.960938 -77.5625 63.351562 -87.5 61.65625 -97.5625 C 59.96875 -107.632812 58.195312 -116.734375 56.34375 -124.859375 C 55.320312 -123.503906 53.753906 -121.597656 51.640625 -119.140625 C 49.523438 -116.691406 47.492188 -114.320312 45.546875 -112.03125 C 43.597656 -109.75 42.289062 -108.101562 41.625 -107.09375 L 41.625 -31.21875 C 41.625 -22.757812 41.957031 -16.457031 42.625 -12.3125 C 43.300781 -8.164062 44.828125 -4.0625 47.203125 0 L 6.09375 0 C 8.457031 -4.0625 9.976562 -8.164062 10.65625 -12.3125 C 11.332031 -16.457031 11.671875 -22.757812 11.671875 -31.21875 L 11.671875 -146.671875 C 11.671875 -155.128906 11.332031 -161.390625 10.65625 -165.453125 C 9.976562 -169.515625 8.457031 -173.578125 6.09375 -177.640625 Z M 6.09375 -177.640625 "/></g></g></g><g fill="#000000" fill-opacity="1"><g transform="translate(1127.085912, 463.422357)"><g><path d="M 2.796875 0 C 3.972656 -2.195312 5.195312 -5.113281 6.46875 -8.75 C 7.738281 -12.382812 8.96875 -17.757812 10.15625 -24.875 C 12.007812 -35.1875 14.035156 -46.390625 16.234375 -58.484375 C 18.441406 -70.585938 20.644531 -82.726562 22.84375 -94.90625 C 25.039062 -107.082031 27.109375 -118.5 29.046875 -129.15625 C 30.992188 -139.820312 32.5625 -148.789062 33.75 -156.0625 C 34.59375 -161.132812 34.972656 -165.53125 34.890625 -169.25 C 34.804688 -172.976562 34.085938 -175.773438 32.734375 -177.640625 L 68.515625 -177.640625 C 67.160156 -175.773438 66.441406 -172.976562 66.359375 -169.25 C 66.273438 -165.53125 66.65625 -161.132812 67.5 -156.0625 C 68.851562 -148.789062 70.503906 -139.820312 72.453125 -129.15625 C 74.398438 -118.5 76.429688 -107.082031 78.546875 -94.90625 C 80.660156 -82.726562 82.816406 -70.585938 85.015625 -58.484375 C 87.210938 -46.390625 89.242188 -35.1875 91.109375 -24.875 C 92.453125 -17.757812 93.800781 -12.382812 95.15625 -8.75 C 96.507812 -5.113281 97.78125 -2.195312 98.96875 0 L 57.609375 0 C 59.460938 -3.550781 60.554688 -7.3125 60.890625 -11.28125 C 61.234375 -15.257812 61.066406 -19.28125 60.390625 -23.34375 C 60.054688 -25.882812 59.632812 -28.460938 59.125 -31.078125 C 58.613281 -33.703125 58.191406 -36.367188 57.859375 -39.078125 L 24.359375 -39.078125 C 23.847656 -36.367188 23.378906 -33.703125 22.953125 -31.078125 C 22.535156 -28.460938 22.160156 -25.882812 21.828125 -23.34375 C 21.148438 -19.28125 21.019531 -15.257812 21.4375 -11.28125 C 21.863281 -7.3125 22.921875 -3.550781 24.609375 0 Z M 25.890625 -49.234375 L 56.34375 -49.234375 C 54.476562 -60.734375 52.613281 -72.109375 50.75 -83.359375 C 48.894531 -94.609375 47.160156 -105.140625 45.546875 -114.953125 C 43.941406 -124.765625 42.460938 -133.054688 41.109375 -139.828125 C 39.921875 -133.054688 38.484375 -124.765625 36.796875 -114.953125 C 35.109375 -105.140625 33.332031 -94.609375 31.46875 -83.359375 C 29.601562 -72.109375 27.742188 -60.734375 25.890625 -49.234375 Z M 25.890625 -49.234375 "/></g></g></g><g fill="#000000" fill-opacity="1"><g transform="translate(1228.594757, 463.422357)"><g><path d="M 68.265625 -32.234375 C 68.265625 -38.660156 66.738281 -44.367188 63.6875 -49.359375 C 60.644531 -54.347656 56.710938 -59.082031 51.890625 -63.5625 C 47.066406 -68.050781 41.988281 -72.578125 36.65625 -77.140625 C 31.332031 -81.710938 26.300781 -86.703125 21.5625 -92.109375 C 16.832031 -97.523438 12.941406 -103.703125 9.890625 -110.640625 C 6.847656 -117.578125 5.328125 -125.613281 5.328125 -134.75 C 5.328125 -143.039062 7.1875 -150.523438 10.90625 -157.203125 C 14.632812 -163.890625 19.671875 -169.21875 26.015625 -173.1875 C 32.359375 -177.164062 39.25 -179.15625 46.6875 -179.15625 C 50.914062 -179.15625 54.765625 -179.023438 58.234375 -178.765625 C 61.703125 -178.515625 65.046875 -178.390625 68.265625 -178.390625 C 71.984375 -178.390625 74.601562 -178.429688 76.125 -178.515625 C 77.644531 -178.609375 79.59375 -178.820312 81.96875 -179.15625 L 81.96875 -120.28125 L 78.921875 -120.28125 C 77.398438 -134.320312 74.945312 -144.894531 71.5625 -152 C 68.175781 -159.101562 64.578125 -163.878906 60.765625 -166.328125 C 56.960938 -168.785156 53.539062 -170.015625 50.5 -170.015625 C 44.070312 -170.015625 38.613281 -167.816406 34.125 -163.421875 C 29.644531 -159.023438 27.40625 -152.851562 27.40625 -144.90625 C 27.40625 -138.46875 28.925781 -132.753906 31.96875 -127.765625 C 35.019531 -122.773438 38.953125 -118.082031 43.765625 -113.6875 C 48.585938 -109.289062 53.75 -104.890625 59.25 -100.484375 C 64.75 -96.085938 69.910156 -91.265625 74.734375 -86.015625 C 79.554688 -80.773438 83.488281 -74.769531 86.53125 -68 C 89.582031 -61.238281 91.109375 -53.289062 91.109375 -44.15625 C 91.109375 -36.207031 89.457031 -28.722656 86.15625 -21.703125 C 82.851562 -14.679688 78.328125 -9.007812 72.578125 -4.6875 C 66.828125 -0.375 60.226562 1.78125 52.78125 1.78125 C 47.539062 1.78125 43.351562 1.484375 40.21875 0.890625 C 37.09375 0.296875 34.175781 -0.25 31.46875 -0.75 C 28.757812 -1.257812 25.125 -1.515625 20.5625 -1.515625 C 17.175781 -1.515625 14.210938 -1.007812 11.671875 0 C 9.128906 1.007812 7.859375 1.601562 7.859375 1.78125 L 7.609375 -63.6875 L 10.65625 -63.6875 C 10.65625 -57.601562 11.5 -51.300781 13.1875 -44.78125 C 14.882812 -38.269531 17.335938 -32.140625 20.546875 -26.390625 C 23.765625 -20.640625 27.695312 -15.988281 32.34375 -12.4375 C 37 -8.882812 42.207031 -7.109375 47.96875 -7.109375 C 53.882812 -7.109375 58.742188 -9.472656 62.546875 -14.203125 C 66.359375 -18.941406 68.265625 -24.953125 68.265625 -32.234375 Z M 68.265625 -32.234375 "/></g></g></g><g fill="#000000" fill-opacity="1"><g transform="translate(1322.236635, 463.422357)"><g><path d="M 5.84375 0 C 8.207031 -4.0625 9.726562 -8.164062 10.40625 -12.3125 C 11.082031 -16.457031 11.421875 -22.757812 11.421875 -31.21875 L 11.421875 -146.671875 C 11.421875 -155.128906 11.082031 -161.390625 10.40625 -165.453125 C 9.726562 -169.515625 8.207031 -173.578125 5.84375 -177.640625 L 46.953125 -177.640625 C 45.421875 -174.929688 44.234375 -172.304688 43.390625 -169.765625 C 42.546875 -167.234375 41.992188 -164.1875 41.734375 -160.625 C 41.484375 -157.070312 41.359375 -152.421875 41.359375 -146.671875 L 41.359375 -31.21875 C 41.359375 -22.757812 41.695312 -16.457031 42.375 -12.3125 C 43.050781 -8.164062 44.578125 -4.0625 46.953125 0 Z M 5.84375 0 "/></g></g></g><g clip-path="url(#decf73d25d)"><path fill="#000000" d="M 767.972656 477.253906 L 770.566406 472.511719 L 773.160156 477.253906 C 774.769531 480.203125 777.191406 482.625 780.140625 484.234375 L 784.882812 486.828125 L 780.140625 489.421875 C 777.191406 491.035156 774.769531 493.457031 773.160156 496.402344 L 770.566406 501.148438 L 767.972656 496.402344 C 766.359375 493.457031 763.9375 491.035156 760.992188 489.421875 L 756.246094 486.828125 L 760.992188 484.234375 C 763.9375 482.625 766.359375 480.203125 767.972656 477.253906 Z M 767.972656 477.253906 " fill-opacity="1" fill-rule="nonzero"/></g><g clip-path="url(#558509db00)"><path fill="#000000" d="M 730.398438 489.375 L 311.089844 489.375 C 309.527344 489.375 308.265625 488.113281 308.265625 486.554688 C 308.265625 484.996094 309.527344 483.730469 311.089844 483.730469 L 730.402344 483.730469 C 731.960938 483.730469 733.222656 484.996094 733.222656 486.554688 C 733.21875 488.113281 731.957031 489.375 730.398438 489.375 Z M 730.398438 489.375 " fill-opacity="1" fill-rule="nonzero"/></g><path fill="#000000" d="M 1230.046875 489.375 L 810.738281 489.375 C 809.175781 489.375 807.914062 488.113281 807.914062 486.554688 C 807.914062 484.996094 809.175781 483.730469 810.738281 483.730469 L 1230.046875 483.730469 C 1231.605469 483.730469 1232.867188 484.996094 1232.867188 486.554688 C 1232.867188 488.113281 1231.605469 489.375 1230.046875 489.375 Z M 1230.046875 489.375 " fill-opacity="1" fill-rule="nonzero"/><path stroke-linecap="butt" transform="matrix(4.169643, 0, 0, 4.169643, -101.707995, 261.147312)" fill="none" stroke-linejoin="miter" d="M 132.245136 -5.179467 C 132.653594 -4.573338 132.591764 -4.171437 132.059644 -3.973766 C 131.527524 -3.776095 130.8783 -3.621518 130.111036 -3.510035 C 128.850061 -3.410731 127.291175 -2.637845 125.435313 -1.190442 C 123.592567 0.244783 121.619602 2.155918 119.516417 4.542962 C 117.414168 6.917828 115.27351 9.601849 113.096315 12.59596 C 112.181032 13.857871 110.999688 15.595692 109.552284 17.809423 C 108.105818 20.010975 106.596583 22.45423 105.025518 25.13825 C 103.454453 27.823207 102.007049 30.531585 100.683308 33.265257 C 99.372681 35.998929 98.364651 38.584582 97.659218 41.021279 C 97.300412 42.233538 97.071825 43.637847 96.972521 45.23327 C 96.874154 46.828693 97.152392 48.109341 97.807237 49.074276 C 97.511199 49.123928 97.028731 49.148286 96.36077 49.148286 C 95.704989 49.148286 94.999555 49.049919 94.245407 48.85131 C 92.117864 48.294833 90.583335 47.082574 89.643694 45.214533 C 88.703116 43.334314 88.258121 41.027837 88.307773 38.294165 C 88.357425 35.548314 88.764947 32.603854 89.532211 29.461724 C 90.187992 26.877008 91.022709 24.266997 92.037296 21.631692 C 93.051884 18.997324 94.164839 16.467881 95.377098 14.043363 C 96.601536 11.60573 97.807237 9.416356 98.995139 7.474306 C 100.18304 5.520077 101.283816 3.936833 102.297467 2.724574 C 100.219576 4.295639 97.647039 6.725778 94.578918 10.016865 C 91.511734 13.307014 88.561654 17.815981 85.728678 23.542827 C 84.157613 26.635306 82.357961 29.801794 80.328785 33.043228 C 78.300547 36.283726 76.054963 39.314373 73.593909 42.135171 C 71.144097 44.942853 68.540644 47.280245 65.782614 49.148286 C 63.023647 51.028505 60.123219 52.166755 57.080393 52.562097 C 54.037567 52.970555 50.919794 52.364426 47.728948 50.743709 C 45.192947 49.482734 43.287434 47.738356 42.013344 45.511509 C 40.75237 43.272483 40.059115 40.878881 39.935453 38.330701 C 39.811792 35.770342 40.201513 33.290551 41.104618 30.890391 C 42.019902 28.478052 43.386738 26.437634 45.205126 24.767265 C 47.035694 23.085654 49.268161 22.071066 51.903466 21.724439 C 54.537834 21.365633 56.789039 21.50241 58.657079 22.132897 C 60.537299 22.763384 62.022175 23.623395 63.110773 24.711992 C 64.211549 25.800589 64.88513 26.877008 65.132454 27.940311 C 65.540912 29.511376 65.441608 30.946601 64.835478 32.245048 C 64.230286 33.531317 63.240055 34.558083 61.867598 35.325348 C 61.867598 35.325348 61.867598 35.021815 61.867598 34.415685 C 61.867598 33.797377 61.737379 33.086322 61.477877 32.282521 C 61.230553 31.465605 60.686255 30.766729 59.844981 30.185894 C 59.015885 29.604122 57.766153 29.338062 56.096721 29.387714 C 54.414173 29.437366 52.899317 29.907655 51.551218 30.797645 C 50.215297 31.688571 49.113584 32.820262 48.247953 34.193656 C 47.3945 35.553935 46.850201 37.007896 46.615057 38.553667 C 46.393028 40.100374 46.584141 41.553399 47.190271 42.913677 C 48.563665 46.006155 50.604082 47.855459 53.313397 48.461589 C 56.022711 49.067718 59.053359 48.158993 62.405339 45.734475 C 64.27338 44.361081 66.054295 42.499598 67.749022 40.149089 C 69.455928 37.786402 71.131918 35.152034 72.776993 32.245048 C 74.422067 29.325884 76.104616 26.326151 77.824637 23.245852 C 79.543721 20.153374 81.367731 17.178936 83.297602 14.321602 C 85.227474 11.451153 87.305364 8.902973 89.532211 6.677063 C 91.759058 4.438037 94.189197 2.736753 96.824502 1.574146 C 94.647307 1.21534 92.457933 0.770345 90.255444 0.238225 C 88.053892 -0.293895 85.531007 -0.503745 82.685852 -0.392262 C 79.852875 -0.343547 77.08173 -0.0521925 74.373352 0.479927 C 71.664038 1.01111 69.320087 1.8833 67.340564 3.095559 C 65.361977 4.307818 63.969847 6.03346 63.166046 8.272486 C 62.498085 10.190178 62.312593 11.859611 62.609568 13.282657 C 62.918722 14.704766 63.450842 15.873931 64.204991 16.789214 C 64.972255 17.692319 65.68331 18.372458 66.339092 18.829632 C 67.007052 19.287742 67.340564 19.516329 67.340564 19.516329 C 63.840564 19.207174 61.162165 18.291891 59.306303 16.770478 C 57.463557 15.249064 56.37496 13.424118 56.041448 11.296575 C 55.719178 9.169033 56.090163 7.004954 57.154403 4.802465 C 58.217706 2.600912 59.888075 0.640125 62.163637 -1.078959 C 64.242464 -2.650024 66.512405 -3.726443 68.97346 -4.307278 C 71.435451 -4.88905 73.927421 -5.15511 76.451243 -5.105458 C 78.987244 -5.055806 81.393025 -4.827219 83.668587 -4.418761 C 85.957265 -4.023418 87.936788 -3.596223 89.606221 -3.13905 C 93.96061 -1.975506 97.504641 -1.746919 100.238313 -2.452353 C 102.984164 -3.15685 104.685449 -4.270741 105.34123 -5.792155 C 106.553489 -5.594483 107.314196 -4.913407 107.62335 -3.7508 C 108.080523 -2.526363 107.901589 -1.14079 107.084672 0.404981 C 106.280871 1.951689 105.07517 3.918096 103.466632 6.306078 C 101.871209 8.680944 100.139009 11.791222 98.271905 15.638786 C 96.342034 19.535065 95.006113 23.319862 94.263206 26.994112 C 93.533415 30.668362 93.224261 33.871386 93.335744 36.605059 C 93.632719 35.702891 94.010262 34.76887 94.467435 33.803935 C 94.826242 33.03667 95.320888 32.083913 95.952312 30.946601 C 96.582799 29.808351 97.25076 28.62045 97.956193 27.383833 C 98.673806 26.134101 99.359566 25.00241 100.015347 23.987822 C 100.671129 22.974171 101.177954 22.18817 101.53676 21.631692 C 104.172065 17.785065 106.967568 14.117373 109.924206 10.628615 C 112.893023 7.128615 115.781272 4.060495 118.588954 1.426126 C 121.408815 -1.209179 123.882985 -3.108134 126.010527 -4.270741 C 127.631245 -5.186025 128.985902 -5.705029 130.074499 -5.828691 C 131.163097 -5.952353 131.88633 -5.735945 132.245136 -5.179467 Z M 150.168582 28.033057 L 152.228673 28.033057 C 150.70726 30.098769 149.043449 32.288142 147.237239 34.601178 C 145.443208 36.902034 143.60702 39.104523 141.7268 41.206771 C 139.85876 43.309956 138.064729 45.072135 136.345644 46.495181 C 134.62656 47.91729 133.105147 48.777301 131.781405 49.074276 C 129.913364 49.433082 128.522171 49.297242 127.60595 48.665818 C 126.690667 48.023152 126.183841 47.032922 126.084537 45.697001 C 125.98617 44.348902 126.165105 42.839667 126.623215 41.170235 C 124.643691 43.34743 122.497412 45.208912 120.184377 46.754683 C 117.883521 48.301391 115.669789 49.074276 113.542247 49.074276 C 111.562723 49.074276 110.096583 48.57963 109.144763 47.589399 C 108.179827 46.600106 107.62335 45.332574 107.474394 43.785867 C 107.314196 42.240096 107.499688 40.557548 108.030871 38.739159 C 108.562991 36.920771 109.385529 35.170771 110.49942 33.488223 C 112.577311 30.29644 114.945619 27.637715 117.605282 25.510172 C 120.264944 23.382629 122.887134 21.78627 125.472787 20.722967 C 128.057503 19.658727 130.265613 19.126607 132.097117 19.126607 C 134.113177 19.126607 135.337615 19.727116 135.77043 20.927196 C 136.203246 22.11416 136.141415 23.642131 135.584938 25.510172 C 136.846849 23.740499 137.897973 22.287474 138.739247 21.149225 C 139.580521 20.010975 140.001158 19.442319 140.001158 19.442319 C 140.001158 19.442319 140.693476 19.50415 142.079049 19.627811 C 143.4768 19.751473 145.41885 19.689642 147.905199 19.442319 C 147.695349 19.788946 146.952442 20.64802 145.678353 22.021414 C 144.417378 23.394808 142.939059 25.12045 141.244333 27.198341 C 139.549606 29.264053 137.892352 31.527436 136.271635 33.989427 C 134.650918 36.450482 133.407743 38.943388 132.542112 41.46721 C 131.836678 43.495449 131.583734 44.819191 131.781405 45.437499 C 131.991255 46.043629 132.461544 46.191648 133.191335 45.882494 C 133.921126 45.57334 134.781137 45.016862 135.77043 44.213061 C 136.759724 43.396145 137.700302 42.561429 138.591228 41.707976 C 139.481217 40.842344 140.149177 40.180005 140.595109 39.722831 C 141.263069 39.06705 142.116522 38.108672 143.155467 36.846761 C 144.194413 35.572671 145.332662 34.162741 146.569279 32.616033 C 147.805895 31.070262 149.005975 29.542291 150.168582 28.033057 Z M 129.889007 34.10091 L 131.707395 31.22484 C 132.622679 29.442987 133.358091 27.835386 133.914569 26.400161 C 134.471983 24.952758 134.64436 23.78453 134.43451 22.893604 C 134.236838 22.002677 133.457395 21.557683 132.097117 21.557683 C 131.132181 21.557683 129.827176 21.866837 128.181164 22.485145 C 126.536089 23.091275 124.773911 24.13022 122.893691 25.602918 C 121.013472 27.0625 119.238178 29.084181 117.568745 31.669834 C 116.764008 32.882093 116.022038 34.261108 115.341899 35.807816 C 114.648644 37.353586 114.153997 38.838463 113.857022 40.260572 C 113.547868 41.683618 113.585341 42.864962 113.968505 43.804603 C 114.33949 44.732066 115.211679 45.196734 116.585073 45.196734 C 117.74768 45.196734 119.077043 44.719887 120.574098 43.76713 C 122.071154 42.803131 123.567273 41.584314 125.064328 40.112553 C 126.561384 38.639855 127.866389 37.143736 128.979344 35.622323 Z M 183.234961 28.033057 L 185.369062 28.033057 C 183.847649 30.098769 182.134185 32.263785 180.229608 34.527168 C 178.33721 36.778372 176.364244 38.931209 174.310711 40.984743 C 172.257178 43.037339 170.203645 44.788275 168.150112 46.235679 C 166.096579 47.669967 164.185444 48.616166 162.416708 49.074276 C 162.268689 49.433082 161.940798 50.676257 161.433972 52.803799 C 160.92621 54.931342 160.39409 57.362418 159.837613 60.09609 C 159.021633 63.942717 157.431831 67.066111 155.069144 69.466272 C 152.718636 71.877674 149.718904 72.985008 146.069948 72.787337 C 145.056297 72.688033 144.02953 72.347963 142.990585 71.766191 C 141.950703 71.185356 141.141281 70.29443 140.559509 69.09435 C 139.977737 67.907385 139.841897 66.348499 140.151051 64.418627 C 140.448026 62.749195 141.159081 61.10412 142.285152 59.483403 C 143.398107 57.862686 144.778058 56.341272 146.423133 54.919163 C 148.068208 53.509233 149.812587 52.27168 151.655333 51.208377 C 153.510258 50.144137 155.297731 49.359073 157.017752 48.85131 C 157.623882 46.464266 158.230011 44.484742 158.836141 42.913677 C 157.376558 44.645877 155.817672 46.105459 154.160418 47.293361 C 152.515344 48.480325 150.758786 49.074276 148.890745 49.074276 C 146.960874 49.074276 145.51347 48.591808 144.548535 47.626873 C 143.583599 46.661937 143.027122 45.394405 142.879102 43.82334 C 142.730146 42.252275 142.922196 40.557548 143.454316 38.739159 C 143.985499 36.920771 144.783679 35.170771 145.847919 33.488223 C 147.31968 31.163009 148.78582 28.948341 150.245403 26.846093 C 151.717164 24.742907 152.960338 22.998529 153.974926 21.612956 C 154.988577 20.215204 155.520697 19.491971 155.570349 19.442319 L 162.955386 19.442319 C 162.287425 20.295772 161.346847 21.508031 160.134588 23.079096 C 158.922329 24.650161 157.629503 26.400161 156.257046 28.330032 C 154.883652 30.259904 153.61612 32.201954 152.453513 34.156183 C 151.289969 36.098233 150.393422 37.892264 149.762935 39.537339 C 149.131511 41.182414 148.958197 42.523955 149.242994 43.563838 C 149.515611 44.602783 150.412158 45.147082 151.933572 45.196734 C 153.046527 45.196734 154.160418 44.769539 155.273373 43.916086 C 156.386328 43.050454 157.425274 41.974036 158.390209 40.687767 C 159.355145 39.388383 160.239513 38.13303 161.044251 36.920771 C 161.86023 35.696333 162.521633 34.755755 163.029395 34.10091 C 164.60046 31.614561 166.152789 29.257495 167.686381 27.031585 C 169.233089 24.804738 170.524978 22.98635 171.563924 21.576419 C 172.603806 20.153374 173.12281 19.442319 173.12281 19.442319 C 173.12281 19.442319 173.809507 19.50415 175.182901 19.627811 C 176.555358 19.751473 178.503966 19.689642 181.026851 19.442319 C 180.730813 19.788946 180.037558 20.599305 178.948961 21.873395 C 177.860363 23.134369 176.543179 24.730729 174.997408 26.6606 C 173.450701 28.577356 171.867457 30.680541 170.24674 32.968282 C 168.626959 35.24478 167.154261 37.614025 165.831456 40.07508 C 164.519893 42.523955 163.505305 44.8932 162.787693 47.181878 C 163.604609 46.921439 164.544251 46.476444 165.60849 45.845957 C 166.671793 45.214533 167.736033 44.510037 168.799336 43.730593 C 169.863576 42.938971 170.834132 42.190444 171.71288 41.48501 C 172.603806 40.768335 173.253029 40.180005 173.661488 39.722831 C 174.316332 39.06705 175.164164 38.108672 176.20311 36.846761 C 177.242055 35.572671 178.380304 34.162741 179.616921 32.616033 C 180.866653 31.070262 182.072354 29.542291 183.234961 28.033057 Z M 146.069948 69.131823 C 147.950167 69.131823 149.484696 68.457305 150.671661 67.109205 C 151.859562 65.773285 152.805761 64.152567 153.510258 62.24799 C 154.22787 60.355592 154.766548 58.599035 155.125354 56.978317 C 155.372677 55.81571 155.607822 54.739292 155.829851 53.749999 C 156.064995 52.760705 156.281403 51.807948 156.479075 50.892665 C 155.266816 51.449142 153.621741 52.488088 151.54385 54.009501 C 149.465959 55.530914 147.783411 57.16381 146.497143 58.908189 C 145.197758 60.664746 144.326506 62.316379 143.880574 63.86215 C 143.423401 65.408857 143.373749 66.669832 143.732555 67.647883 C 144.079182 68.637176 144.857689 69.131823 146.069948 69.131823 Z M 216.447486 28.033057 L 218.580649 28.033057 C 217.059236 30.098769 215.34671 32.263785 213.441196 34.527168 C 211.548798 36.778372 209.575832 38.931209 207.522299 40.984743 C 205.468766 43.037339 203.41617 44.788275 201.362637 46.235679 C 199.309104 47.669967 197.397969 48.616166 195.629232 49.074276 C 195.480276 49.433082 195.152386 50.676257 194.64556 52.803799 C 194.138735 54.931342 193.606615 57.362418 193.050137 60.09609 C 192.233221 63.942717 190.644356 67.066111 188.281669 69.466272 C 185.93116 71.877674 182.931428 72.985008 179.282472 72.787337 C 178.267885 72.688033 177.241118 72.347963 176.202173 71.766191 C 175.163227 71.185356 174.352869 70.29443 173.771097 69.09435 C 173.190262 67.907385 173.054421 66.348499 173.363575 64.418627 C 173.660551 62.749195 174.371605 61.10412 175.496739 59.483403 C 176.610631 57.862686 177.989646 56.341272 179.634721 54.919163 C 181.279795 53.509233 183.024174 52.27168 184.866921 51.208377 C 186.722782 50.144137 188.510255 49.359073 190.22934 48.85131 C 190.835469 46.464266 191.441599 44.484742 192.047728 42.913677 C 190.588146 44.645877 189.02926 46.105459 187.372006 47.293361 C 185.726931 48.480325 183.970373 49.074276 182.102333 49.074276 C 180.172462 49.074276 178.725995 48.591808 177.761059 47.626873 C 176.796123 46.661937 176.239646 45.394405 176.09069 43.82334 C 175.942671 42.252275 176.133784 40.557548 176.665904 38.739159 C 177.198024 36.920771 177.996204 35.170771 179.059507 33.488223 C 180.531268 31.163009 181.997408 28.948341 183.45699 26.846093 C 184.928751 24.742907 186.171926 22.998529 187.186513 21.612956 C 188.201101 20.215204 188.733221 19.491971 188.781936 19.442319 L 196.166973 19.442319 C 195.499013 20.295772 194.559372 21.508031 193.347113 23.079096 C 192.134854 24.650161 190.842027 26.400161 189.468633 28.330032 C 188.096176 30.259904 186.827707 32.201954 185.6651 34.156183 C 184.502493 36.098233 183.605946 37.892264 182.974522 39.537339 C 182.344035 41.182414 182.170722 42.523955 182.455518 43.563838 C 182.727199 44.602783 183.623746 45.147082 185.145159 45.196734 C 186.259051 45.196734 187.372006 44.769539 188.484961 43.916086 C 189.598853 43.050454 190.637798 41.974036 191.602734 40.687767 C 192.567669 39.388383 193.452038 38.13303 194.255838 36.920771 C 195.071818 35.696333 195.734157 34.755755 196.240983 34.10091 C 197.812048 31.614561 199.364377 29.257495 200.898905 27.031585 C 202.444676 24.804738 203.737503 22.98635 204.776448 21.576419 C 205.815393 20.153374 206.335334 19.442319 206.335334 19.442319 C 206.335334 19.442319 207.021095 19.50415 208.394488 19.627811 C 209.767882 19.751473 211.715554 19.689642 214.239376 19.442319 C 213.9424 19.788946 213.250082 20.599305 212.161485 21.873395 C 211.072888 23.134369 209.754767 24.730729 208.208996 26.6606 C 206.663225 28.577356 205.079044 30.680541 203.459264 32.968282 C 201.838547 35.24478 200.366786 37.614025 199.043044 40.07508 C 197.731481 42.523955 196.71783 44.8932 196.000217 47.181878 C 196.816197 46.921439 197.756775 46.476444 198.820078 45.845957 C 199.884318 45.214533 200.947621 44.510037 202.01186 43.730593 C 203.075163 42.938971 204.046657 42.190444 204.924467 41.48501 C 205.815393 40.768335 206.464617 40.180005 206.873075 39.722831 C 207.528857 39.06705 208.375752 38.108672 209.414697 36.846761 C 210.454579 35.572671 211.591892 34.162741 212.829445 32.616033 C 214.078241 31.070262 215.284879 29.542291 216.447486 28.033057 Z M 179.282472 69.131823 C 181.162692 69.131823 182.696284 68.457305 183.884185 67.109205 C 185.07115 65.773285 186.017349 64.152567 186.722782 62.24799 C 187.440395 60.355592 187.978135 58.599035 188.336942 56.978317 C 188.584265 55.81571 188.81941 54.739292 189.042375 53.749999 C 189.276583 52.760705 189.493928 51.807948 189.691599 50.892665 C 188.47934 51.449142 186.834265 52.488088 184.755438 54.009501 C 182.677547 55.530914 180.994999 57.16381 179.70873 58.908189 C 178.410283 60.664746 177.538093 62.316379 177.093099 63.86215 C 176.634989 65.408857 176.585337 66.669832 176.944143 67.647883 C 177.29077 68.637176 178.070213 69.131823 179.282472 69.131823 Z M 179.282472 69.131823 " stroke="#ffffff" stroke-width="3.895015" stroke-opacity="1" stroke-miterlimit="4"/><g fill="#705698" fill-opacity="1"><g transform="translate(64.03532, 465.459826)"><g><path d="M 385.65625 -225.9375 C 387.34375 -223.40625 387.078125 -221.71875 384.859375 -220.875 C 382.640625 -220.03125 379.945312 -219.394531 376.78125 -218.96875 C 371.5 -218.550781 365.003906 -215.332031 357.296875 -209.3125 C 349.585938 -203.289062 341.347656 -195.3125 332.578125 -185.375 C 323.804688 -175.445312 314.878906 -164.253906 305.796875 -151.796875 C 301.992188 -146.515625 297.082031 -139.273438 291.0625 -130.078125 C 285.039062 -120.890625 278.753906 -110.695312 272.203125 -99.5 C 265.660156 -88.300781 259.640625 -77 254.140625 -65.59375 C 248.648438 -54.1875 244.425781 -43.414062 241.46875 -33.28125 C 239.988281 -28.207031 239.035156 -22.34375 238.609375 -15.6875 C 238.191406 -9.03125 239.359375 -3.695312 242.109375 0.3125 C 240.835938 0.53125 238.828125 0.640625 236.078125 0.640625 C 233.335938 0.640625 230.378906 0.210938 227.203125 -0.640625 C 218.335938 -2.960938 211.945312 -8.03125 208.03125 -15.84375 C 204.125 -23.65625 202.273438 -33.265625 202.484375 -44.671875 C 202.703125 -56.085938 204.394531 -68.34375 207.5625 -81.4375 C 210.3125 -92.21875 213.796875 -103.097656 218.015625 -114.078125 C 222.242188 -125.066406 226.890625 -135.628906 231.953125 -145.765625 C 237.023438 -155.910156 242.046875 -165.046875 247.015625 -173.171875 C 251.984375 -181.304688 256.578125 -187.910156 260.796875 -192.984375 C 252.140625 -186.429688 241.421875 -176.289062 228.640625 -162.5625 C 215.859375 -148.832031 203.550781 -130.03125 191.71875 -106.15625 C 185.164062 -93.269531 177.664062 -80.066406 169.21875 -66.546875 C 160.769531 -53.023438 151.421875 -40.398438 141.171875 -28.671875 C 130.929688 -16.953125 120.050781 -7.1875 108.53125 0.625 C 97.019531 8.445312 84.925781 13.203125 72.25 14.890625 C 59.570312 16.578125 46.582031 14.039062 33.28125 7.28125 C 22.707031 2 14.78125 -5.285156 9.5 -14.578125 C 4.21875 -23.867188 1.3125 -33.847656 0.78125 -44.515625 C 0.257812 -55.191406 1.898438 -65.546875 5.703125 -75.578125 C 9.503906 -85.609375 15.207031 -94.109375 22.8125 -101.078125 C 30.414062 -108.054688 39.710938 -112.285156 50.703125 -113.765625 C 61.691406 -115.242188 71.09375 -114.660156 78.90625 -112.015625 C 86.71875 -109.378906 92.894531 -105.789062 97.4375 -101.25 C 101.976562 -96.707031 104.78125 -92.21875 105.84375 -87.78125 C 107.53125 -81.226562 107.101562 -75.257812 104.5625 -69.875 C 102.03125 -64.488281 97.914062 -60.210938 92.21875 -57.046875 C 92.21875 -57.046875 92.21875 -58.3125 92.21875 -60.84375 C 92.21875 -63.375 91.6875 -66.328125 90.625 -69.703125 C 89.570312 -73.085938 87.300781 -75.992188 83.8125 -78.421875 C 80.332031 -80.859375 75.101562 -81.96875 68.125 -81.75 C 61.15625 -81.539062 54.867188 -79.585938 49.265625 -75.890625 C 43.671875 -72.191406 39.078125 -67.488281 35.484375 -61.78125 C 31.898438 -56.082031 29.628906 -50.007812 28.671875 -43.5625 C 27.722656 -37.125 28.519531 -31.050781 31.0625 -25.34375 C 36.757812 -12.457031 45.257812 -4.75 56.5625 -2.21875 C 67.863281 0.3125 80.488281 -3.488281 94.4375 -13.625 C 102.25 -19.332031 109.691406 -27.097656 116.765625 -36.921875 C 123.847656 -46.742188 130.820312 -57.726562 137.6875 -69.875 C 144.550781 -82.019531 151.570312 -94.535156 158.75 -107.421875 C 165.9375 -120.304688 173.546875 -132.71875 181.578125 -144.65625 C 189.609375 -156.59375 198.269531 -167.207031 207.5625 -176.5 C 216.851562 -185.800781 226.992188 -192.878906 237.984375 -197.734375 C 228.898438 -199.210938 219.765625 -201.0625 210.578125 -203.28125 C 201.390625 -205.5 190.878906 -206.398438 179.046875 -205.984375 C 167.210938 -205.765625 155.644531 -204.546875 144.34375 -202.328125 C 133.039062 -200.109375 123.269531 -196.460938 115.03125 -191.390625 C 106.789062 -186.328125 100.984375 -179.148438 97.609375 -169.859375 C 94.859375 -161.828125 94.113281 -154.851562 95.375 -148.9375 C 96.644531 -143.019531 98.863281 -138.160156 102.03125 -134.359375 C 105.207031 -130.554688 108.164062 -127.703125 110.90625 -125.796875 C 113.65625 -123.898438 115.03125 -122.953125 115.03125 -122.953125 C 100.457031 -124.222656 89.3125 -128.023438 81.59375 -134.359375 C 73.882812 -140.703125 69.34375 -148.304688 67.96875 -157.171875 C 66.59375 -166.046875 68.125 -175.078125 72.5625 -184.265625 C 77 -193.460938 83.972656 -201.648438 93.484375 -208.828125 C 102.140625 -215.378906 111.59375 -219.867188 121.84375 -222.296875 C 132.09375 -224.722656 142.5 -225.832031 153.0625 -225.625 C 163.625 -225.414062 173.65625 -224.460938 183.15625 -222.765625 C 192.664062 -221.078125 200.90625 -219.285156 207.875 -217.390625 C 226.050781 -212.523438 240.84375 -211.570312 252.25 -214.53125 C 263.65625 -217.488281 270.734375 -222.140625 273.484375 -228.484375 C 278.546875 -227.628906 281.710938 -224.773438 282.984375 -219.921875 C 284.878906 -214.847656 284.132812 -209.085938 280.75 -202.640625 C 277.375 -196.203125 272.359375 -188.019531 265.703125 -178.09375 C 259.054688 -168.164062 251.820312 -155.171875 244 -139.109375 C 235.976562 -122.847656 230.4375 -107.054688 227.375 -91.734375 C 224.3125 -76.421875 222.988281 -63.0625 223.40625 -51.65625 C 224.675781 -55.457031 226.257812 -59.363281 228.15625 -63.375 C 229.632812 -66.539062 231.691406 -70.5 234.328125 -75.25 C 236.972656 -80.007812 239.773438 -84.976562 242.734375 -90.15625 C 245.691406 -95.332031 248.539062 -100.03125 251.28125 -104.25 C 254.03125 -108.476562 256.144531 -111.753906 257.625 -114.078125 C 268.613281 -130.140625 280.285156 -145.457031 292.640625 -160.03125 C 305.003906 -174.601562 317.046875 -187.382812 328.765625 -198.375 C 340.492188 -209.363281 350.796875 -217.285156 359.671875 -222.140625 C 366.429688 -225.941406 372.082031 -228.101562 376.625 -228.625 C 381.164062 -229.15625 384.175781 -228.257812 385.65625 -225.9375 Z M 385.65625 -225.9375 "/></g></g></g><g fill="#705698" fill-opacity="1"><g transform="translate(380.92807, 465.459826)"><g><path d="M 143.546875 -87.46875 L 152.109375 -87.46875 C 145.765625 -78.800781 138.84375 -69.660156 131.34375 -60.046875 C 123.851562 -50.429688 116.195312 -41.238281 108.375 -32.46875 C 100.5625 -23.707031 93.0625 -16.367188 85.875 -10.453125 C 78.695312 -4.535156 72.359375 -0.945312 66.859375 0.3125 C 59.046875 1.789062 53.238281 1.210938 49.4375 -1.421875 C 45.632812 -4.066406 43.519531 -8.1875 43.09375 -13.78125 C 42.675781 -19.382812 43.414062 -25.671875 45.3125 -32.640625 C 37.070312 -23.554688 28.144531 -15.789062 18.53125 -9.34375 C 8.925781 -2.90625 -0.3125 0.3125 -9.1875 0.3125 C -17.425781 0.3125 -23.550781 -1.742188 -27.5625 -5.859375 C -31.582031 -9.984375 -33.90625 -15.265625 -34.53125 -21.703125 C -35.164062 -28.148438 -34.375 -35.175781 -32.15625 -42.78125 C -29.945312 -50.382812 -26.515625 -57.671875 -21.859375 -64.640625 C -13.203125 -77.953125 -3.328125 -89.046875 7.765625 -97.921875 C 18.859375 -106.796875 29.789062 -113.445312 40.5625 -117.875 C 51.332031 -122.3125 60.519531 -124.53125 68.125 -124.53125 C 76.582031 -124.53125 81.707031 -122.046875 83.5 -117.078125 C 85.289062 -112.117188 85.023438 -105.734375 82.703125 -97.921875 C 87.984375 -105.316406 92.367188 -111.390625 95.859375 -116.140625 C 99.347656 -120.890625 101.09375 -123.265625 101.09375 -123.265625 C 101.09375 -123.265625 103.992188 -123 109.796875 -122.46875 C 115.609375 -121.945312 123.691406 -122.210938 134.046875 -123.265625 C 133.203125 -121.785156 130.140625 -118.191406 124.859375 -112.484375 C 119.578125 -106.785156 113.394531 -99.601562 106.3125 -90.9375 C 99.238281 -82.28125 92.320312 -72.828125 85.5625 -62.578125 C 78.800781 -52.335938 73.625 -41.9375 70.03125 -31.375 C 67.070312 -22.925781 66.015625 -17.429688 66.859375 -14.890625 C 67.703125 -12.359375 69.65625 -11.722656 72.71875 -12.984375 C 75.789062 -14.253906 79.382812 -16.578125 83.5 -19.953125 C 87.625 -23.335938 91.53125 -26.828125 95.21875 -30.421875 C 98.914062 -34.015625 101.71875 -36.757812 103.625 -38.65625 C 106.375 -41.40625 109.910156 -45.421875 114.234375 -50.703125 C 118.566406 -55.984375 123.320312 -61.84375 128.5 -68.28125 C 133.675781 -74.726562 138.691406 -81.125 143.546875 -87.46875 Z M 58.9375 -62.109375 L 66.546875 -74.15625 C 70.347656 -81.550781 73.410156 -88.257812 75.734375 -94.28125 C 78.054688 -100.300781 78.796875 -105.15625 77.953125 -108.84375 C 77.109375 -112.539062 73.832031 -114.390625 68.125 -114.390625 C 64.113281 -114.390625 58.675781 -113.125 51.8125 -110.59375 C 44.945312 -108.0625 37.601562 -103.726562 29.78125 -97.59375 C 21.96875 -91.46875 14.578125 -83.019531 7.609375 -72.25 C 4.222656 -67.175781 1.109375 -61.414062 -1.734375 -54.96875 C -4.585938 -48.53125 -6.648438 -42.351562 -7.921875 -36.4375 C -9.191406 -30.519531 -9.03125 -25.609375 -7.4375 -21.703125 C -5.851562 -17.796875 -2.210938 -15.84375 3.484375 -15.84375 C 8.347656 -15.84375 13.894531 -17.847656 20.125 -21.859375 C 26.351562 -25.878906 32.582031 -30.953125 38.8125 -37.078125 C 45.050781 -43.203125 50.492188 -49.429688 55.140625 -55.765625 Z M 58.9375 -62.109375 "/></g></g></g><g fill="#705698" fill-opacity="1"><g transform="translate(523.212944, 465.459826)"><g><path d="M 139.109375 -87.46875 L 147.984375 -87.46875 C 141.648438 -78.800781 134.519531 -69.765625 126.59375 -60.359375 C 118.675781 -50.960938 110.4375 -41.984375 101.875 -33.421875 C 93.320312 -24.867188 84.765625 -17.582031 76.203125 -11.5625 C 67.648438 -5.539062 59.675781 -1.582031 52.28125 0.3125 C 51.65625 1.789062 50.285156 6.96875 48.171875 15.84375 C 46.054688 24.71875 43.835938 34.859375 41.515625 46.265625 C 38.128906 62.316406 31.523438 75.359375 21.703125 85.390625 C 11.878906 95.429688 -0.632812 100.03125 -15.84375 99.1875 C -20.070312 98.757812 -24.347656 97.332031 -28.671875 94.90625 C -33.003906 92.476562 -36.382812 88.78125 -38.8125 83.8125 C -41.25 78.851562 -41.832031 72.359375 -40.5625 64.328125 C -39.289062 57.359375 -36.332031 50.492188 -31.6875 43.734375 C -27.039062 36.972656 -21.285156 30.632812 -14.421875 24.71875 C -7.554688 18.800781 -0.269531 13.625 7.4375 9.1875 C 15.15625 4.75 22.601562 1.472656 29.78125 -0.640625 C 32.320312 -10.566406 34.859375 -18.800781 37.390625 -25.34375 C 31.265625 -18.164062 24.769531 -12.09375 17.90625 -7.125 C 11.039062 -2.164062 3.695312 0.3125 -4.125 0.3125 C -12.144531 0.3125 -18.160156 -1.691406 -22.171875 -5.703125 C -26.191406 -9.710938 -28.519531 -14.992188 -29.15625 -21.546875 C -29.789062 -28.097656 -29 -35.175781 -26.78125 -42.78125 C -24.5625 -50.382812 -21.234375 -57.671875 -16.796875 -64.640625 C -10.671875 -74.359375 -4.546875 -83.601562 1.578125 -92.375 C 7.710938 -101.144531 12.890625 -108.429688 17.109375 -114.234375 C 21.335938 -120.046875 23.554688 -123.054688 23.765625 -123.265625 L 54.5 -123.265625 C 51.757812 -119.679688 47.851562 -114.613281 42.78125 -108.0625 C 37.707031 -101.507812 32.316406 -94.21875 26.609375 -86.1875 C 20.910156 -78.164062 15.628906 -70.085938 10.765625 -61.953125 C 5.910156 -53.816406 2.164062 -46.316406 -0.46875 -39.453125 C -3.113281 -32.585938 -3.851562 -26.988281 -2.6875 -22.65625 C -1.53125 -18.320312 2.21875 -16.050781 8.5625 -15.84375 C 13.207031 -15.84375 17.851562 -17.640625 22.5 -21.234375 C 27.144531 -24.828125 31.472656 -29.316406 35.484375 -34.703125 C 39.503906 -40.085938 43.203125 -45.3125 46.578125 -50.375 C 49.960938 -55.445312 52.710938 -59.359375 54.828125 -62.109375 C 61.367188 -72.460938 67.859375 -82.285156 74.296875 -91.578125 C 80.742188 -100.878906 86.132812 -108.484375 90.46875 -114.390625 C 94.800781 -120.304688 96.96875 -123.265625 96.96875 -123.265625 C 96.96875 -123.265625 99.816406 -123 105.515625 -122.46875 C 111.222656 -121.945312 119.359375 -122.210938 129.921875 -123.265625 C 128.660156 -121.785156 125.753906 -118.40625 121.203125 -113.125 C 116.660156 -107.84375 111.164062 -101.1875 104.71875 -93.15625 C 98.28125 -85.132812 91.679688 -76.367188 84.921875 -66.859375 C 78.160156 -57.359375 72.035156 -47.484375 66.546875 -37.234375 C 61.054688 -26.984375 56.832031 -17.109375 53.875 -7.609375 C 57.25 -8.660156 61.15625 -10.503906 65.59375 -13.140625 C 70.03125 -15.785156 74.46875 -18.742188 78.90625 -22.015625 C 83.34375 -25.296875 87.410156 -28.414062 91.109375 -31.375 C 94.804688 -34.332031 97.5 -36.757812 99.1875 -38.65625 C 101.9375 -41.40625 105.472656 -45.421875 109.796875 -50.703125 C 114.128906 -55.984375 118.882812 -61.84375 124.0625 -68.28125 C 129.238281 -74.726562 134.253906 -81.125 139.109375 -87.46875 Z M -15.84375 83.96875 C -8.03125 83.96875 -1.640625 81.171875 3.328125 75.578125 C 8.296875 69.984375 12.253906 63.222656 15.203125 55.296875 C 18.160156 47.367188 20.378906 40.03125 21.859375 33.28125 C 22.921875 28.414062 23.925781 23.921875 24.875 19.796875 C 25.820312 15.679688 26.71875 11.722656 27.5625 7.921875 C 22.5 10.242188 15.632812 14.578125 6.96875 20.921875 C -1.6875 27.253906 -8.707031 34.0625 -14.09375 41.34375 C -19.488281 48.632812 -23.132812 55.503906 -25.03125 61.953125 C -26.9375 68.398438 -27.148438 73.679688 -25.671875 77.796875 C -24.191406 81.910156 -20.914062 83.96875 -15.84375 83.96875 Z M -15.84375 83.96875 "/></g></g></g><g fill="#705698" fill-opacity="1"><g transform="translate(661.695091, 465.459826)"><g><path d="M 139.109375 -87.46875 L 147.984375 -87.46875 C 141.648438 -78.800781 134.519531 -69.765625 126.59375 -60.359375 C 118.675781 -50.960938 110.4375 -41.984375 101.875 -33.421875 C 93.320312 -24.867188 84.765625 -17.582031 76.203125 -11.5625 C 67.648438 -5.539062 59.675781 -1.582031 52.28125 0.3125 C 51.65625 1.789062 50.285156 6.96875 48.171875 15.84375 C 46.054688 24.71875 43.835938 34.859375 41.515625 46.265625 C 38.128906 62.316406 31.523438 75.359375 21.703125 85.390625 C 11.878906 95.429688 -0.632812 100.03125 -15.84375 99.1875 C -20.070312 98.757812 -24.347656 97.332031 -28.671875 94.90625 C -33.003906 92.476562 -36.382812 88.78125 -38.8125 83.8125 C -41.25 78.851562 -41.832031 72.359375 -40.5625 64.328125 C -39.289062 57.359375 -36.332031 50.492188 -31.6875 43.734375 C -27.039062 36.972656 -21.285156 30.632812 -14.421875 24.71875 C -7.554688 18.800781 -0.269531 13.625 7.4375 9.1875 C 15.15625 4.75 22.601562 1.472656 29.78125 -0.640625 C 32.320312 -10.566406 34.859375 -18.800781 37.390625 -25.34375 C 31.265625 -18.164062 24.769531 -12.09375 17.90625 -7.125 C 11.039062 -2.164062 3.695312 0.3125 -4.125 0.3125 C -12.144531 0.3125 -18.160156 -1.691406 -22.171875 -5.703125 C -26.191406 -9.710938 -28.519531 -14.992188 -29.15625 -21.546875 C -29.789062 -28.097656 -29 -35.175781 -26.78125 -42.78125 C -24.5625 -50.382812 -21.234375 -57.671875 -16.796875 -64.640625 C -10.671875 -74.359375 -4.546875 -83.601562 1.578125 -92.375 C 7.710938 -101.144531 12.890625 -108.429688 17.109375 -114.234375 C 21.335938 -120.046875 23.554688 -123.054688 23.765625 -123.265625 L 54.5 -123.265625 C 51.757812 -119.679688 47.851562 -114.613281 42.78125 -108.0625 C 37.707031 -101.507812 32.316406 -94.21875 26.609375 -86.1875 C 20.910156 -78.164062 15.628906 -70.085938 10.765625 -61.953125 C 5.910156 -53.816406 2.164062 -46.316406 -0.46875 -39.453125 C -3.113281 -32.585938 -3.851562 -26.988281 -2.6875 -22.65625 C -1.53125 -18.320312 2.21875 -16.050781 8.5625 -15.84375 C 13.207031 -15.84375 17.851562 -17.640625 22.5 -21.234375 C 27.144531 -24.828125 31.472656 -29.316406 35.484375 -34.703125 C 39.503906 -40.085938 43.203125 -45.3125 46.578125 -50.375 C 49.960938 -55.445312 52.710938 -59.359375 54.828125 -62.109375 C 61.367188 -72.460938 67.859375 -82.285156 74.296875 -91.578125 C 80.742188 -100.878906 86.132812 -108.484375 90.46875 -114.390625 C 94.800781 -120.304688 96.96875 -123.265625 96.96875 -123.265625 C 96.96875 -123.265625 99.816406 -123 105.515625 -122.46875 C 111.222656 -121.945312 119.359375 -122.210938 129.921875 -123.265625 C 128.660156 -121.785156 125.753906 -118.40625 121.203125 -113.125 C 116.660156 -107.84375 111.164062 -101.1875 104.71875 -93.15625 C 98.28125 -85.132812 91.679688 -76.367188 84.921875 -66.859375 C 78.160156 -57.359375 72.035156 -47.484375 66.546875 -37.234375 C 61.054688 -26.984375 56.832031 -17.109375 53.875 -7.609375 C 57.25 -8.660156 61.15625 -10.503906 65.59375 -13.140625 C 70.03125 -15.785156 74.46875 -18.742188 78.90625 -22.015625 C 83.34375 -25.296875 87.410156 -28.414062 91.109375 -31.375 C 94.804688 -34.332031 97.5 -36.757812 99.1875 -38.65625 C 101.9375 -41.40625 105.472656 -45.421875 109.796875 -50.703125 C 114.128906 -55.984375 118.882812 -61.84375 124.0625 -68.28125 C 129.238281 -74.726562 134.253906 -81.125 139.109375 -87.46875 Z M -15.84375 83.96875 C -8.03125 83.96875 -1.640625 81.171875 3.328125 75.578125 C 8.296875 69.984375 12.253906 63.222656 15.203125 55.296875 C 18.160156 47.367188 20.378906 40.03125 21.859375 33.28125 C 22.921875 28.414062 23.925781 23.921875 24.875 19.796875 C 25.820312 15.679688 26.71875 11.722656 27.5625 7.921875 C 22.5 10.242188 15.632812 14.578125 6.96875 20.921875 C -1.6875 27.253906 -8.707031 34.0625 -14.09375 41.34375 C -19.488281 48.632812 -23.132812 55.503906 -25.03125 61.953125 C -26.9375 68.398438 -27.148438 73.679688 -25.671875 77.796875 C -24.191406 81.910156 -20.914062 83.96875 -15.84375 83.96875 Z M -15.84375 83.96875 "/></g></g></g><g fill="#705698" fill-opacity="1"><g transform="translate(179.456666, 542.588065)"><g><path d="M 5.390625 -9.96875 C 5.203125 -10.65625 4.96875 -11.613281 4.6875 -12.84375 C 4.40625 -14.070312 4.09375 -15.40625 3.75 -16.84375 C 3.40625 -18.28125 3.039062 -19.691406 2.65625 -21.078125 C 2.269531 -22.460938 1.882812 -23.679688 1.5 -24.734375 C 1.113281 -25.785156 0.753906 -26.515625 0.421875 -26.921875 L 7.265625 -26.921875 C 6.929688 -25.640625 6.847656 -24.222656 7.015625 -22.671875 C 7.179688 -21.117188 7.46875 -19.484375 7.875 -17.765625 C 8.289062 -16.046875 8.691406 -14.265625 9.078125 -12.421875 C 9.484375 -14.265625 9.882812 -16.046875 10.28125 -17.765625 C 10.6875 -19.484375 10.972656 -21.117188 11.140625 -22.671875 C 11.304688 -24.222656 11.207031 -25.640625 10.84375 -26.921875 L 14.921875 -26.921875 C 14.585938 -26.515625 14.226562 -25.785156 13.84375 -24.734375 C 13.457031 -23.679688 13.070312 -22.460938 12.6875 -21.078125 C 12.3125 -19.691406 11.945312 -18.28125 11.59375 -16.84375 C 11.25 -15.40625 10.9375 -14.078125 10.65625 -12.859375 C 10.375 -11.648438 10.15625 -10.695312 10 -10 C 10 -9.507812 10 -8.9375 10 -8.28125 C 10 -7.632812 10 -6.992188 10 -6.359375 C 10 -5.734375 10 -5.191406 10 -4.734375 C 10 -3.453125 10.054688 -2.492188 10.171875 -1.859375 C 10.285156 -1.234375 10.507812 -0.613281 10.84375 0 L 4.546875 0 C 4.898438 -0.613281 5.128906 -1.234375 5.234375 -1.859375 C 5.335938 -2.492188 5.390625 -3.453125 5.390625 -4.734375 C 5.390625 -5.171875 5.390625 -5.703125 5.390625 -6.328125 C 5.390625 -6.953125 5.390625 -7.59375 5.390625 -8.25 C 5.390625 -8.90625 5.390625 -9.476562 5.390625 -9.96875 Z M 5.390625 -9.96875 "/></g></g></g><g fill="#705698" fill-opacity="1"><g transform="translate(194.804929, 542.588065)"><g><path d="M 9 0.265625 C 7.40625 0.265625 6.035156 -0.300781 4.890625 -1.4375 C 3.753906 -2.582031 2.882812 -4.179688 2.28125 -6.234375 C 1.6875 -8.285156 1.390625 -10.679688 1.390625 -13.421875 C 1.390625 -16.171875 1.6875 -18.578125 2.28125 -20.640625 C 2.882812 -22.703125 3.753906 -24.300781 4.890625 -25.4375 C 6.035156 -26.582031 7.40625 -27.15625 9 -27.15625 C 10.613281 -27.15625 11.984375 -26.582031 13.109375 -25.4375 C 14.242188 -24.300781 15.113281 -22.703125 15.71875 -20.640625 C 16.320312 -18.578125 16.625 -16.171875 16.625 -13.421875 C 16.625 -10.679688 16.320312 -8.285156 15.71875 -6.234375 C 15.113281 -4.179688 14.242188 -2.582031 13.109375 -1.4375 C 11.984375 -0.300781 10.613281 0.265625 9 0.265625 Z M 6.078125 -13.421875 C 6.078125 -9.546875 6.273438 -6.535156 6.671875 -4.390625 C 7.066406 -2.253906 7.859375 -1.1875 9.046875 -1.1875 C 10.242188 -1.1875 11.03125 -2.253906 11.40625 -4.390625 C 11.78125 -6.535156 11.96875 -9.546875 11.96875 -13.421875 C 11.96875 -17.316406 11.78125 -20.335938 11.40625 -22.484375 C 11.03125 -24.628906 10.242188 -25.703125 9.046875 -25.703125 C 7.859375 -25.703125 7.066406 -24.628906 6.671875 -22.484375 C 6.273438 -20.335938 6.078125 -17.316406 6.078125 -13.421875 Z M 6.078125 -13.421875 "/></g></g></g><g fill="#705698" fill-opacity="1"><g transform="translate(212.807404, 542.588065)"><g><path d="M 1.6875 -22.234375 C 1.6875 -23.109375 1.664062 -23.8125 1.625 -24.34375 C 1.59375 -24.882812 1.519531 -25.347656 1.40625 -25.734375 C 1.289062 -26.117188 1.117188 -26.515625 0.890625 -26.921875 L 7.109375 -26.921875 C 6.878906 -26.515625 6.703125 -26.117188 6.578125 -25.734375 C 6.453125 -25.347656 6.363281 -24.882812 6.3125 -24.34375 C 6.257812 -23.8125 6.234375 -23.109375 6.234375 -22.234375 L 6.234375 -10 C 6.234375 -7.71875 6.289062 -5.941406 6.40625 -4.671875 C 6.519531 -3.398438 6.75 -2.515625 7.09375 -2.015625 C 7.4375 -1.515625 7.941406 -1.265625 8.609375 -1.265625 C 9.304688 -1.265625 9.820312 -1.515625 10.15625 -2.015625 C 10.488281 -2.515625 10.710938 -3.398438 10.828125 -4.671875 C 10.941406 -5.941406 11 -7.71875 11 -10 L 11 -22.234375 C 11 -23.109375 10.976562 -23.8125 10.9375 -24.34375 C 10.90625 -24.882812 10.832031 -25.347656 10.71875 -25.734375 C 10.601562 -26.117188 10.414062 -26.515625 10.15625 -26.921875 L 16.390625 -26.921875 C 16.054688 -26.304688 15.832031 -25.691406 15.71875 -25.078125 C 15.601562 -24.460938 15.546875 -23.515625 15.546875 -22.234375 L 15.546875 -7.265625 C 15.546875 -5.546875 15.296875 -4.1875 14.796875 -3.1875 C 14.296875 -2.1875 13.664062 -1.4375 12.90625 -0.9375 C 12.144531 -0.4375 11.382812 -0.113281 10.625 0.03125 C 9.875 0.1875 9.226562 0.265625 8.6875 0.265625 C 8.125 0.265625 7.445312 0.1875 6.65625 0.03125 C 5.863281 -0.113281 5.085938 -0.4375 4.328125 -0.9375 C 3.566406 -1.4375 2.9375 -2.1875 2.4375 -3.1875 C 1.9375 -4.1875 1.6875 -5.546875 1.6875 -7.265625 Z M 1.6875 -22.234375 "/></g></g></g><g fill="#705698" fill-opacity="1"><g transform="translate(230.079008, 542.588065)"><g/></g></g><g fill="#705698" fill-opacity="1"><g transform="translate(237.772376, 542.588065)"><g><path d="M 9 0.265625 C 7.40625 0.265625 6.035156 -0.300781 4.890625 -1.4375 C 3.753906 -2.582031 2.882812 -4.179688 2.28125 -6.234375 C 1.6875 -8.285156 1.390625 -10.679688 1.390625 -13.421875 C 1.390625 -16.171875 1.6875 -18.578125 2.28125 -20.640625 C 2.882812 -22.703125 3.753906 -24.300781 4.890625 -25.4375 C 6.035156 -26.582031 7.40625 -27.15625 9 -27.15625 C 10.613281 -27.15625 11.984375 -26.582031 13.109375 -25.4375 C 14.242188 -24.300781 15.113281 -22.703125 15.71875 -20.640625 C 16.320312 -18.578125 16.625 -16.171875 16.625 -13.421875 C 16.625 -10.679688 16.320312 -8.285156 15.71875 -6.234375 C 15.113281 -4.179688 14.242188 -2.582031 13.109375 -1.4375 C 11.984375 -0.300781 10.613281 0.265625 9 0.265625 Z M 6.078125 -13.421875 C 6.078125 -9.546875 6.273438 -6.535156 6.671875 -4.390625 C 7.066406 -2.253906 7.859375 -1.1875 9.046875 -1.1875 C 10.242188 -1.1875 11.03125 -2.253906 11.40625 -4.390625 C 11.78125 -6.535156 11.96875 -9.546875 11.96875 -13.421875 C 11.96875 -17.316406 11.78125 -20.335938 11.40625 -22.484375 C 11.03125 -24.628906 10.242188 -25.703125 9.046875 -25.703125 C 7.859375 -25.703125 7.066406 -24.628906 6.671875 -22.484375 C 6.273438 -20.335938 6.078125 -17.316406 6.078125 -13.421875 Z M 6.078125 -13.421875 "/></g></g></g><g fill="#705698" fill-opacity="1"><g transform="translate(255.774851, 542.588065)"><g><path d="M 0.890625 0 C 1.242188 -0.613281 1.476562 -1.234375 1.59375 -1.859375 C 1.707031 -2.492188 1.765625 -3.453125 1.765625 -4.734375 L 1.765625 -22.234375 C 1.765625 -23.109375 1.738281 -23.8125 1.6875 -24.34375 C 1.632812 -24.882812 1.550781 -25.347656 1.4375 -25.734375 C 1.320312 -26.117188 1.140625 -26.515625 0.890625 -26.921875 L 6.546875 -26.921875 L 13 -7.046875 C 13 -7.046875 13 -7.363281 13 -8 C 13 -8.644531 13 -9.492188 13 -10.546875 C 13 -11.597656 12.992188 -12.738281 12.984375 -13.96875 C 12.972656 -15.195312 12.96875 -16.40625 12.96875 -17.59375 C 12.96875 -18.789062 12.96875 -19.847656 12.96875 -20.765625 C 12.96875 -21.691406 12.96875 -22.375 12.96875 -22.8125 C 12.96875 -23.6875 12.945312 -24.335938 12.90625 -24.765625 C 12.863281 -25.203125 12.78125 -25.566406 12.65625 -25.859375 C 12.53125 -26.160156 12.351562 -26.515625 12.125 -26.921875 L 15.46875 -26.921875 C 15.132812 -26.304688 14.898438 -25.6875 14.765625 -25.0625 C 14.640625 -24.4375 14.578125 -23.484375 14.578125 -22.203125 C 14.578125 -21.835938 14.578125 -21.160156 14.578125 -20.171875 C 14.578125 -19.191406 14.570312 -18.023438 14.5625 -16.671875 C 14.550781 -15.328125 14.546875 -13.898438 14.546875 -12.390625 C 14.546875 -10.878906 14.546875 -9.390625 14.546875 -7.921875 C 14.546875 -6.460938 14.535156 -5.132812 14.515625 -3.9375 C 14.503906 -2.75 14.5 -1.796875 14.5 -1.078125 C 14.5 -0.359375 14.5 0 14.5 0 L 10.34375 0 L 3.3125 -21.65625 C 3.3125 -21.65625 3.3125 -21.300781 3.3125 -20.59375 C 3.3125 -19.894531 3.316406 -18.976562 3.328125 -17.84375 C 3.335938 -16.71875 3.34375 -15.488281 3.34375 -14.15625 C 3.34375 -12.820312 3.347656 -11.519531 3.359375 -10.25 C 3.378906 -8.976562 3.390625 -7.847656 3.390625 -6.859375 C 3.390625 -5.878906 3.390625 -5.171875 3.390625 -4.734375 C 3.390625 -3.453125 3.445312 -2.492188 3.5625 -1.859375 C 3.675781 -1.234375 3.898438 -0.613281 4.234375 0 Z M 0.890625 0 "/></g></g></g><g fill="#705698" fill-opacity="1"><g transform="translate(272.123248, 542.588065)"><g><path d="M 0.921875 -26.921875 L 7.15625 -26.921875 C 6.820312 -26.304688 6.597656 -25.691406 6.484375 -25.078125 C 6.367188 -24.460938 6.3125 -23.515625 6.3125 -22.234375 L 6.3125 -1.3125 C 8.101562 -1.3125 9.46875 -1.5625 10.40625 -2.0625 C 11.34375 -2.5625 12.019531 -3.351562 12.4375 -4.4375 C 12.863281 -5.53125 13.191406 -6.945312 13.421875 -8.6875 L 13.890625 -8.6875 L 13.890625 0 L 0.921875 0 C 1.285156 -0.613281 1.515625 -1.226562 1.609375 -1.84375 C 1.710938 -2.457031 1.765625 -3.40625 1.765625 -4.6875 L 1.765625 -22.234375 C 1.765625 -23.515625 1.710938 -24.460938 1.609375 -25.078125 C 1.515625 -25.691406 1.285156 -26.304688 0.921875 -26.921875 Z M 0.921875 -26.921875 "/></g></g></g><g fill="#705698" fill-opacity="1"><g transform="translate(287.279168, 542.588065)"><g><path d="M 5.390625 -9.96875 C 5.203125 -10.65625 4.96875 -11.613281 4.6875 -12.84375 C 4.40625 -14.070312 4.09375 -15.40625 3.75 -16.84375 C 3.40625 -18.28125 3.039062 -19.691406 2.65625 -21.078125 C 2.269531 -22.460938 1.882812 -23.679688 1.5 -24.734375 C 1.113281 -25.785156 0.753906 -26.515625 0.421875 -26.921875 L 7.265625 -26.921875 C 6.929688 -25.640625 6.847656 -24.222656 7.015625 -22.671875 C 7.179688 -21.117188 7.46875 -19.484375 7.875 -17.765625 C 8.289062 -16.046875 8.691406 -14.265625 9.078125 -12.421875 C 9.484375 -14.265625 9.882812 -16.046875 10.28125 -17.765625 C 10.6875 -19.484375 10.972656 -21.117188 11.140625 -22.671875 C 11.304688 -24.222656 11.207031 -25.640625 10.84375 -26.921875 L 14.921875 -26.921875 C 14.585938 -26.515625 14.226562 -25.785156 13.84375 -24.734375 C 13.457031 -23.679688 13.070312 -22.460938 12.6875 -21.078125 C 12.3125 -19.691406 11.945312 -18.28125 11.59375 -16.84375 C 11.25 -15.40625 10.9375 -14.078125 10.65625 -12.859375 C 10.375 -11.648438 10.15625 -10.695312 10 -10 C 10 -9.507812 10 -8.9375 10 -8.28125 C 10 -7.632812 10 -6.992188 10 -6.359375 C 10 -5.734375 10 -5.191406 10 -4.734375 C 10 -3.453125 10.054688 -2.492188 10.171875 -1.859375 C 10.285156 -1.234375 10.507812 -0.613281 10.84375 0 L 4.546875 0 C 4.898438 -0.613281 5.128906 -1.234375 5.234375 -1.859375 C 5.335938 -2.492188 5.390625 -3.453125 5.390625 -4.734375 C 5.390625 -5.171875 5.390625 -5.703125 5.390625 -6.328125 C 5.390625 -6.953125 5.390625 -7.59375 5.390625 -8.25 C 5.390625 -8.90625 5.390625 -9.476562 5.390625 -9.96875 Z M 5.390625 -9.96875 "/></g></g></g><g fill="#705698" fill-opacity="1"><g transform="translate(302.627437, 542.588065)"><g/></g></g><g fill="#705698" fill-opacity="1"><g transform="translate(310.320804, 542.588065)"><g><path d="M 0.921875 0 C 1.285156 -0.613281 1.515625 -1.226562 1.609375 -1.84375 C 1.710938 -2.457031 1.765625 -3.40625 1.765625 -4.6875 L 1.765625 -22.234375 C 1.765625 -23.515625 1.710938 -24.460938 1.609375 -25.078125 C 1.515625 -25.691406 1.285156 -26.304688 0.921875 -26.921875 L 13.890625 -26.921875 L 13.890625 -18.234375 L 13.421875 -18.234375 C 13.421875 -19.566406 13.222656 -20.796875 12.828125 -21.921875 C 12.429688 -23.054688 11.816406 -23.972656 10.984375 -24.671875 C 10.148438 -25.378906 9.078125 -25.734375 7.765625 -25.734375 L 6.3125 -25.734375 L 6.3125 -15.921875 L 6.96875 -15.921875 C 7.5 -15.921875 8.0625 -16.085938 8.65625 -16.421875 C 9.25 -16.753906 9.75 -17.28125 10.15625 -18 C 10.5625 -18.71875 10.765625 -19.640625 10.765625 -20.765625 L 11.234375 -20.765625 L 11.234375 -9.734375 L 10.765625 -9.734375 C 10.765625 -10.890625 10.5625 -11.816406 10.15625 -12.515625 C 9.75 -13.222656 9.25 -13.742188 8.65625 -14.078125 C 8.0625 -14.410156 7.5 -14.578125 6.96875 -14.578125 L 6.3125 -14.578125 L 6.3125 -4.6875 C 6.3125 -3.40625 6.367188 -2.457031 6.484375 -1.84375 C 6.597656 -1.226562 6.820312 -0.613281 7.15625 0 Z M 0.921875 0 "/></g></g></g><g fill="#705698" fill-opacity="1"><g transform="translate(325.476737, 542.588065)"><g><path d="M 0.421875 0 C 0.597656 -0.332031 0.78125 -0.773438 0.96875 -1.328125 C 1.164062 -1.878906 1.351562 -2.691406 1.53125 -3.765625 C 1.820312 -5.328125 2.132812 -7.023438 2.46875 -8.859375 C 2.800781 -10.703125 3.132812 -12.546875 3.46875 -14.390625 C 3.800781 -16.234375 4.113281 -17.960938 4.40625 -19.578125 C 4.695312 -21.191406 4.929688 -22.550781 5.109375 -23.65625 C 5.242188 -24.425781 5.300781 -25.09375 5.28125 -25.65625 C 5.269531 -26.21875 5.164062 -26.640625 4.96875 -26.921875 L 10.390625 -26.921875 C 10.179688 -26.640625 10.070312 -26.21875 10.0625 -25.65625 C 10.050781 -25.09375 10.109375 -24.425781 10.234375 -23.65625 C 10.441406 -22.550781 10.691406 -21.191406 10.984375 -19.578125 C 11.273438 -17.960938 11.582031 -16.234375 11.90625 -14.390625 C 12.226562 -12.546875 12.554688 -10.703125 12.890625 -8.859375 C 13.222656 -7.023438 13.53125 -5.328125 13.8125 -3.765625 C 14.019531 -2.691406 14.222656 -1.878906 14.421875 -1.328125 C 14.628906 -0.773438 14.820312 -0.332031 15 0 L 8.734375 0 C 9.015625 -0.539062 9.179688 -1.109375 9.234375 -1.703125 C 9.285156 -2.304688 9.257812 -2.921875 9.15625 -3.546875 C 9.101562 -3.921875 9.035156 -4.304688 8.953125 -4.703125 C 8.878906 -5.109375 8.816406 -5.515625 8.765625 -5.921875 L 3.6875 -5.921875 C 3.613281 -5.515625 3.546875 -5.109375 3.484375 -4.703125 C 3.421875 -4.304688 3.363281 -3.921875 3.3125 -3.546875 C 3.207031 -2.921875 3.1875 -2.304688 3.25 -1.703125 C 3.3125 -1.109375 3.472656 -0.539062 3.734375 0 Z M 3.921875 -7.46875 L 8.546875 -7.46875 C 8.253906 -9.207031 7.96875 -10.925781 7.6875 -12.625 C 7.40625 -14.332031 7.144531 -15.929688 6.90625 -17.421875 C 6.664062 -18.910156 6.441406 -20.171875 6.234375 -21.203125 C 6.054688 -20.171875 5.835938 -18.910156 5.578125 -17.421875 C 5.316406 -15.929688 5.046875 -14.332031 4.765625 -12.625 C 4.484375 -10.925781 4.203125 -9.207031 3.921875 -7.46875 Z M 3.921875 -7.46875 "/></g></g></g><g fill="#705698" fill-opacity="1"><g transform="translate(340.863473, 542.588065)"><g><path d="M 0.421875 -26.921875 L 7.1875 -26.921875 C 6.9375 -26.203125 6.800781 -25.269531 6.78125 -24.125 C 6.769531 -22.988281 6.828125 -21.726562 6.953125 -20.34375 C 7.085938 -18.957031 7.265625 -17.539062 7.484375 -16.09375 C 7.703125 -14.644531 7.929688 -13.25 8.171875 -11.90625 C 8.421875 -10.5625 8.640625 -9.347656 8.828125 -8.265625 C 9.015625 -7.191406 9.148438 -6.347656 9.234375 -5.734375 C 9.304688 -6.347656 9.4375 -7.191406 9.625 -8.265625 C 9.820312 -9.347656 10.039062 -10.5625 10.28125 -11.90625 C 10.53125 -13.25 10.769531 -14.644531 11 -16.09375 C 11.226562 -17.539062 11.40625 -18.957031 11.53125 -20.34375 C 11.664062 -21.726562 11.722656 -22.988281 11.703125 -24.125 C 11.691406 -25.269531 11.5625 -26.203125 11.3125 -26.921875 L 15.125 -26.921875 C 14.9375 -26.585938 14.742188 -26.144531 14.546875 -25.59375 C 14.359375 -25.050781 14.164062 -24.238281 13.96875 -23.15625 C 13.6875 -21.59375 13.378906 -19.894531 13.046875 -18.0625 C 12.710938 -16.226562 12.378906 -14.382812 12.046875 -12.53125 C 11.710938 -10.6875 11.398438 -8.957031 11.109375 -7.34375 C 10.828125 -5.726562 10.585938 -4.367188 10.390625 -3.265625 C 10.253906 -2.492188 10.191406 -1.832031 10.203125 -1.28125 C 10.222656 -0.738281 10.335938 -0.3125 10.546875 0 L 5 0 C 5.40625 -0.613281 5.457031 -1.703125 5.15625 -3.265625 C 4.945312 -4.367188 4.695312 -5.726562 4.40625 -7.34375 C 4.113281 -8.957031 3.800781 -10.6875 3.46875 -12.53125 C 3.132812 -14.382812 2.804688 -16.226562 2.484375 -18.0625 C 2.160156 -19.894531 1.859375 -21.59375 1.578125 -23.15625 C 1.398438 -24.238281 1.207031 -25.050781 1 -25.59375 C 0.789062 -26.144531 0.597656 -26.585938 0.421875 -26.921875 Z M 0.421875 -26.921875 "/></g></g></g><g fill="#705698" fill-opacity="1"><g transform="translate(356.36561, 542.588065)"><g><path d="M 9 0.265625 C 7.40625 0.265625 6.035156 -0.300781 4.890625 -1.4375 C 3.753906 -2.582031 2.882812 -4.179688 2.28125 -6.234375 C 1.6875 -8.285156 1.390625 -10.679688 1.390625 -13.421875 C 1.390625 -16.171875 1.6875 -18.578125 2.28125 -20.640625 C 2.882812 -22.703125 3.753906 -24.300781 4.890625 -25.4375 C 6.035156 -26.582031 7.40625 -27.15625 9 -27.15625 C 10.613281 -27.15625 11.984375 -26.582031 13.109375 -25.4375 C 14.242188 -24.300781 15.113281 -22.703125 15.71875 -20.640625 C 16.320312 -18.578125 16.625 -16.171875 16.625 -13.421875 C 16.625 -10.679688 16.320312 -8.285156 15.71875 -6.234375 C 15.113281 -4.179688 14.242188 -2.582031 13.109375 -1.4375 C 11.984375 -0.300781 10.613281 0.265625 9 0.265625 Z M 6.078125 -13.421875 C 6.078125 -9.546875 6.273438 -6.535156 6.671875 -4.390625 C 7.066406 -2.253906 7.859375 -1.1875 9.046875 -1.1875 C 10.242188 -1.1875 11.03125 -2.253906 11.40625 -4.390625 C 11.78125 -6.535156 11.96875 -9.546875 11.96875 -13.421875 C 11.96875 -17.316406 11.78125 -20.335938 11.40625 -22.484375 C 11.03125 -24.628906 10.242188 -25.703125 9.046875 -25.703125 C 7.859375 -25.703125 7.066406 -24.628906 6.671875 -22.484375 C 6.273438 -20.335938 6.078125 -17.316406 6.078125 -13.421875 Z M 6.078125 -13.421875 "/></g></g></g><g fill="#705698" fill-opacity="1"><g transform="translate(374.368091, 542.588065)"><g><path d="M 0.921875 0 C 1.285156 -0.613281 1.515625 -1.234375 1.609375 -1.859375 C 1.710938 -2.492188 1.765625 -3.453125 1.765625 -4.734375 L 1.765625 -22 C 1.765625 -23.28125 1.710938 -24.273438 1.609375 -24.984375 C 1.515625 -25.691406 1.285156 -26.351562 0.921875 -26.96875 C 1.585938 -26.96875 2.367188 -26.96875 3.265625 -26.96875 C 4.160156 -26.96875 5.0625 -26.96875 5.96875 -26.96875 C 6.882812 -26.96875 7.691406 -26.96875 8.390625 -26.96875 C 9.515625 -26.96875 10.5625 -26.832031 11.53125 -26.5625 C 12.507812 -26.289062 13.300781 -25.78125 13.90625 -25.03125 C 14.507812 -24.289062 14.8125 -23.191406 14.8125 -21.734375 C 14.8125 -20.421875 14.484375 -19.21875 13.828125 -18.125 C 13.171875 -17.039062 12.4375 -16.078125 11.625 -15.234375 C 12 -13.691406 12.351562 -12.285156 12.6875 -11.015625 C 13.019531 -9.742188 13.316406 -8.597656 13.578125 -7.578125 C 14.140625 -5.472656 14.625 -3.847656 15.03125 -2.703125 C 15.445312 -1.566406 15.910156 -0.664062 16.421875 0 L 9.921875 0 C 10.078125 -0.28125 10.164062 -0.753906 10.1875 -1.421875 C 10.21875 -2.085938 10.15625 -2.816406 10 -3.609375 C 9.945312 -3.898438 9.867188 -4.257812 9.765625 -4.6875 C 9.671875 -5.125 9.554688 -5.613281 9.421875 -6.15625 C 9.242188 -6.945312 9.015625 -7.804688 8.734375 -8.734375 C 8.453125 -9.660156 8.144531 -10.722656 7.8125 -11.921875 C 7.375 -11.515625 7.015625 -11.066406 6.734375 -10.578125 C 6.453125 -10.085938 6.3125 -9.550781 6.3125 -8.96875 L 6.3125 -4.734375 C 6.3125 -3.453125 6.359375 -2.492188 6.453125 -1.859375 C 6.554688 -1.234375 6.789062 -0.613281 7.15625 0 Z M 7.6875 -25.3125 L 6.3125 -25.3125 L 6.3125 -12.078125 C 6.820312 -12.617188 7.382812 -13.34375 8 -14.25 C 8.613281 -15.164062 9.148438 -16.253906 9.609375 -17.515625 C 10.078125 -18.785156 10.3125 -20.226562 10.3125 -21.84375 C 10.3125 -22.769531 10.085938 -23.578125 9.640625 -24.265625 C 9.191406 -24.960938 8.539062 -25.3125 7.6875 -25.3125 Z M 7.6875 -25.3125 "/></g></g></g><g fill="#705698" fill-opacity="1"><g transform="translate(391.178089, 542.588065)"><g><path d="M 0.890625 0 C 1.242188 -0.613281 1.472656 -1.234375 1.578125 -1.859375 C 1.679688 -2.492188 1.734375 -3.453125 1.734375 -4.734375 L 1.734375 -22.234375 C 1.734375 -23.515625 1.679688 -24.460938 1.578125 -25.078125 C 1.472656 -25.691406 1.242188 -26.304688 0.890625 -26.921875 L 7.109375 -26.921875 C 6.878906 -26.515625 6.703125 -26.117188 6.578125 -25.734375 C 6.453125 -25.347656 6.367188 -24.882812 6.328125 -24.34375 C 6.285156 -23.8125 6.265625 -23.109375 6.265625 -22.234375 L 6.265625 -4.734375 C 6.265625 -3.453125 6.316406 -2.492188 6.421875 -1.859375 C 6.523438 -1.234375 6.753906 -0.613281 7.109375 0 Z M 0.890625 0 "/></g></g></g><g fill="#705698" fill-opacity="1"><g transform="translate(399.179195, 542.588065)"><g><path d="M 0.609375 -18.234375 L 0.609375 -26.921875 L 14.390625 -26.921875 L 14.390625 -18.234375 L 13.921875 -18.234375 C 13.921875 -19.566406 13.789062 -20.796875 13.53125 -21.921875 C 13.28125 -23.054688 12.882812 -23.972656 12.34375 -24.671875 C 11.8125 -25.378906 11.132812 -25.734375 10.3125 -25.734375 L 9.765625 -25.78125 L 9.765625 -4.734375 C 9.765625 -3.453125 9.816406 -2.492188 9.921875 -1.859375 C 10.023438 -1.234375 10.257812 -0.613281 10.625 0 L 4.390625 0 C 4.742188 -0.613281 4.972656 -1.234375 5.078125 -1.859375 C 5.179688 -2.492188 5.234375 -3.453125 5.234375 -4.734375 L 5.234375 -25.78125 L 4.65625 -25.734375 C 3.832031 -25.734375 3.148438 -25.378906 2.609375 -24.671875 C 2.078125 -23.972656 1.679688 -23.054688 1.421875 -21.921875 C 1.160156 -20.796875 1.03125 -19.566406 1.03125 -18.234375 Z M 0.609375 -18.234375 "/></g></g></g><g fill="#705698" fill-opacity="1"><g transform="translate(414.181258, 542.588065)"><g><path d="M 1.765625 -22.234375 C 1.765625 -23.515625 1.710938 -24.460938 1.609375 -25.078125 C 1.515625 -25.691406 1.285156 -26.304688 0.921875 -26.921875 L 13.890625 -26.921875 L 13.890625 -18.234375 L 13.421875 -18.234375 C 13.421875 -19.566406 13.222656 -20.785156 12.828125 -21.890625 C 12.429688 -22.992188 11.816406 -23.878906 10.984375 -24.546875 C 10.148438 -25.210938 9.078125 -25.546875 7.765625 -25.546875 L 6.3125 -25.546875 L 6.3125 -15.921875 L 6.96875 -15.921875 C 7.5 -15.921875 8.0625 -16.085938 8.65625 -16.421875 C 9.25 -16.753906 9.75 -17.28125 10.15625 -18 C 10.5625 -18.71875 10.765625 -19.640625 10.765625 -20.765625 L 11.234375 -20.765625 L 11.234375 -9.734375 L 10.765625 -9.734375 C 10.765625 -10.890625 10.5625 -11.816406 10.15625 -12.515625 C 9.75 -13.222656 9.25 -13.742188 8.65625 -14.078125 C 8.0625 -14.410156 7.5 -14.578125 6.96875 -14.578125 L 6.3125 -14.578125 L 6.3125 -1.390625 C 8.101562 -1.335938 9.46875 -1.550781 10.40625 -2.03125 C 11.34375 -2.519531 12.019531 -3.316406 12.4375 -4.421875 C 12.863281 -5.523438 13.191406 -6.945312 13.421875 -8.6875 L 13.890625 -8.6875 L 13.890625 0 L 0.921875 0 C 1.285156 -0.613281 1.515625 -1.226562 1.609375 -1.84375 C 1.710938 -2.457031 1.765625 -3.40625 1.765625 -4.6875 Z M 1.765625 -22.234375 "/></g></g></g><g fill="#705698" fill-opacity="1"><g transform="translate(429.341358, 542.588065)"><g/></g></g></svg>